HIERARCHY
ROOT Hips
{
	OFFSET 0.000000 0.000000 0.000000 
	CHANNELS 6 Xposition Yposition Zposition Zrotation Yrotation Xrotation
	JOINT LeftUpLeg
	{
		OFFSET 1.363060 -1.794630 0.839290 
		CHANNELS 3 Zrotation Yrotation Xrotation
		JOINT LeftLeg
		{
			OFFSET 2.448110 -6.726130 0.000000 
			CHANNELS 3 Zrotation Yrotation Xrotation
			JOINT LeftFoot
			{
				OFFSET 2.562200 -7.039590 0.000000 
				CHANNELS 3 Zrotation Yrotation Xrotation
				JOINT LeftToeBase
				{
					OFFSET 0.157640 -0.433110 2.322550 
					CHANNELS 3 Zrotation Yrotation Xrotation
					End Site
					{
						OFFSET 0.000000 0.000000 0.000000 
					}
				}
			}
		}
	}
	JOINT RightUpLeg
	{
		OFFSET -1.305520 -1.794630 0.839290 
		CHANNELS 3 Zrotation Yrotation Xrotation
		JOINT RightLeg
		{
			OFFSET -2.542530 -6.985550 0.000000 
			CHANNELS 3 Zrotation Yrotation Xrotation
			JOINT RightFoot
			{
				OFFSET -2.568260 -7.056230 0.000000 
				CHANNELS 3 Zrotation Yrotation Xrotation
				JOINT RightToeBase
				{
					OFFSET -0.164730 -0.452590 2.363150 
					CHANNELS 3 Zrotation Yrotation Xrotation
					End Site
					{
						OFFSET 0.000000 0.000000 0.000000 
					}
				}
			}
		}
	}
	JOINT Spine
	{
		OFFSET 0.028270 2.035590 -0.193380 
		CHANNELS 3 Zrotation Yrotation Xrotation
		JOINT Spine1
		{
			OFFSET 0.056720 2.048850 -0.042750 
			CHANNELS 3 Zrotation Yrotation Xrotation
			JOINT Neck1
			{
				OFFSET -0.054170 1.746240 0.172020 
				CHANNELS 3 Zrotation Yrotation Xrotation
				JOINT Head
				{
					OFFSET 0.104070 1.761360 -0.123970 
					CHANNELS 3 Zrotation Yrotation Xrotation
					End Site
					{
						OFFSET 0.000000 0.000000 0.000000 
					}
				}
			}
			JOINT LeftArm
			{
				OFFSET 3.362410 1.200890 -0.311210 
				CHANNELS 3 Zrotation Yrotation Xrotation
				JOINT LeftForeArm
				{
					OFFSET 4.983000 -0.000000 -0.000000 
					CHANNELS 3 Zrotation Yrotation Xrotation
					JOINT LeftHand
					{
						OFFSET 3.483560 -0.000000 -0.000000 
						CHANNELS 3 Zrotation Yrotation Xrotation
						JOINT LeftHandIndex1
						{
							OFFSET 0.715260 -0.000000 -0.000000 
							CHANNELS 3 Zrotation Yrotation Xrotation
							End Site
							{
								OFFSET 0.000000 0.000000 0.000000 
							}
						}
					}
				}
			}
			JOINT RightArm
			{
				OFFSET -3.136600 1.374050 -0.404650 
				CHANNELS 3 Zrotation Yrotation Xrotation
				JOINT RightForeArm
				{
					OFFSET -5.241900 -0.000000 -0.000000 
					CHANNELS 3 Zrotation Yrotation Xrotation
					JOINT RightHand
					{
						OFFSET -3.444170 -0.000000 -0.000000 
						CHANNELS 3 Zrotation Yrotation Xrotation
						JOINT RightHandIndex1
						{
							OFFSET -0.622530 -0.000000 -0.000000 
							CHANNELS 3 Zrotation Yrotation Xrotation
							End Site
							{
								OFFSET 0.000000 0.000000 0.000000 
							}
						}
					}
				}
			}
		}
	}
}
MOTION
Frames: 18
Frame Time: 0.041667
-10.941853 15.541194 5.002954 -7.389882 3.105258 -7.385735 -32.926440 -15.952169 -22.631257 10.859489 8.851565 36.937394 -7.147024 -21.901679 -22.933997 0.063500 1.626000 4.473000 41.319487 -13.395634 19.064952 -7.467071 -13.805878 40.485961 1.514602 9.571028 -18.089790 -0.000200 -0.097900 0.269000 12.857090 -0.206537 29.999832 -5.021378 1.013628 -12.215920 1.701308 0.928414 44.868386 2.870100 -0.380100 15.049700 -98.688876 6.619092 12.034160 20.300577 -30.225467 -3.036453 2.817111 5.720274 -0.052570 -7.125000 0.000000 0.000000 92.483751 2.481265 7.915211 -18.927925 27.051023 -2.550094 -2.189788 0.402424 -4.003828 7.125000 0.000000 0.000000 
-10.920817 15.558291 5.104999 -7.033359 2.760825 -7.532904 -33.502860 -15.114971 -21.645992 10.797037 8.867416 36.756777 -7.226066 -22.119649 -22.991039 0.065900 1.656800 4.558000 40.728665 -12.585154 17.943253 -8.062387 -14.428167 43.317814 1.563020 9.372639 -16.678581 -0.000000 -0.006100 0.016700 12.381994 0.029415 30.185246 -4.821286 1.152591 -12.337146 1.568955 0.917305 44.797552 2.798900 -0.390700 15.002900 -98.496879 6.783621 12.617845 20.498909 -30.397596 -3.073680 2.688707 5.853883 -0.274350 -7.125000 0.000000 0.000000 92.340368 2.213547 8.663662 -19.506323 27.870572 -2.749875 -2.129688 0.237708 -4.766153 7.125000 0.000000 0.000000 
-10.899961 15.580669 5.207849 -5.833940 2.591260 -8.008650 -35.047680 -13.996283 -19.709015 10.629180 8.865700 36.136076 -6.989538 -21.799388 -23.151201 0.050300 1.447400 3.980800 39.053180 -12.143893 17.263363 -8.626121 -14.980750 45.959439 1.695628 9.586388 -15.915542 -0.024800 1.017500 -2.797100 11.181938 0.238284 30.563704 -4.115918 1.292452 -12.717734 1.722073 0.966991 44.775848 2.889400 -0.363600 14.941700 -98.438762 7.122693 13.059082 20.887111 -30.862418 -3.186943 2.647285 5.832207 -0.357807 -7.125000 0.000000 0.000000 91.988431 1.973770 9.799093 -19.916596 28.428304 -2.896124 -2.096157 0.136524 -5.421462 7.125000 0.000000 0.000000 
-10.878030 15.606807 5.311504 -5.100418 2.449324 -8.365205 -36.162250 -12.869643 -17.902016 10.493755 8.785978 35.293581 -6.741966 -21.336094 -23.168326 0.083100 1.859900 5.118700 37.885200 -11.672724 16.257082 -9.185398 -15.484188 48.551532 1.780121 9.785137 -15.658610 -0.105800 2.097200 -5.774300 10.345768 0.321304 30.920887 -3.698397 1.358648 -12.819373 1.410824 1.218714 44.669695 2.829400 -0.306800 14.893400 -98.270032 7.464266 13.804046 21.482540 -31.569473 -3.352067 2.430940 5.946980 -0.810950 -7.125000 0.000000 0.000000 91.773663 2.069679 10.513194 -20.188559 28.835691 -2.997341 -2.070362 0.090490 -5.782542 7.125000 0.000000 0.000000 
-10.858785 15.631244 5.409431 -4.226355 2.383580 -8.383477 -37.367310 -11.699922 -16.716329 10.337411 8.620579 34.225061 -6.682500 -21.280694 -23.043689 0.082800 1.856100 5.108300 36.776978 -10.971946 14.931115 -9.764092 -15.939117 51.121821 1.694870 9.574068 -15.884886 -0.152400 2.515600 -6.932800 9.162239 0.486184 31.228775 -3.150706 1.438696 -12.848545 1.052990 1.463064 44.555702 2.722800 -0.237100 14.816300 -98.009512 7.647595 14.532705 21.873634 -31.957456 -3.445691 2.217549 6.021657 -1.385521 -7.125000 0.000000 0.000000 91.649974 2.268008 11.233217 -20.387632 29.164512 -3.084112 -2.076436 0.035407 -6.655117 7.125000 0.000000 0.000000 
-10.844195 15.655412 5.496169 -2.592919 2.441201 -8.192547 -39.141681 -10.680015 -15.850720 10.103159 8.459992 33.068402 -6.669061 -21.394975 -22.806442 0.049400 1.434500 3.945300 34.927720 -10.286961 13.520374 -10.341896 -16.345824 53.604492 1.547172 9.243562 -16.567469 -0.150100 2.496300 -6.879400 7.098122 0.812919 31.450613 -2.048095 1.587629 -13.108737 1.188079 1.552880 44.821691 2.795800 -0.175900 14.889400 -97.871687 7.514581 14.783809 21.855349 -31.894917 -3.443499 2.349006 5.770906 -1.547191 -7.125000 0.000000 0.000000 91.487438 2.416474 12.258678 -20.547125 29.459653 -3.169790 -2.137599 -0.002730 -8.113354 7.125000 0.000000 0.000000 
-10.835154 15.663648 5.579595 -1.657114 2.319154 -8.283676 -40.183350 -9.795972 -14.722969 9.936911 8.318197 32.065535 -6.567215 -21.202293 -22.585056 0.109100 2.130000 5.865000 33.793857 -9.687103 12.283033 -10.865164 -16.716587 55.935858 1.294795 8.706521 -17.633885 -0.123500 2.265800 -6.240800 6.045256 0.995402 31.613512 -1.423681 1.707610 -13.302942 1.625274 1.497639 45.033453 2.981800 -0.157900 14.994000 -97.694114 7.324833 15.266412 21.909825 -31.961161 -3.457611 2.342670 5.721280 -1.616263 -7.125000 0.000000 0.000000 91.364590 2.593685 12.893703 -20.842185 29.947744 -3.297018 -2.140173 -0.054907 -8.513237 7.125000 0.000000 0.000000 
-10.827366 15.668034 5.665885 -1.564010 2.015818 -8.750308 -40.488179 -8.778275 -13.060129 9.815873 8.142396 31.027288 -6.338562 -20.726182 -22.628326 0.194300 2.838900 7.830400 33.537704 -9.135779 11.342764 -11.330933 -17.039008 58.046858 0.881877 7.746651 -18.950594 -0.068200 1.684300 -4.634000 6.144243 0.956810 31.983422 -1.338194 1.773693 -13.213658 1.602782 1.606531 44.671301 3.017900 -0.138500 14.929600 -97.506944 7.172509 16.045198 22.205105 -32.364362 -3.547723 2.197496 5.810248 -1.908288 -7.125000 0.000000 0.000000 91.223628 3.090378 13.263995 -21.136797 30.458303 -3.420142 -2.025990 -0.176633 -7.729161 7.125000 0.000000 0.000000 
-10.817072 15.691934 5.749669 -1.206256 1.828879 -9.028535 -40.963633 -7.674547 -11.636086 9.663956 8.013259 30.156811 -6.189543 -20.454415 -22.609713 0.163500 2.605100 7.181200 33.021913 -8.615339 10.308273 -11.756059 -17.291917 59.862998 0.407702 6.559816 -20.374271 -0.047100 1.400500 -3.851500 6.003650 0.923100 32.216056 -1.032759 1.839534 -13.199934 1.250516 1.896126 44.478762 2.972900 -0.090100 14.884500 -97.422521 7.047512 16.621881 22.401731 -32.659003 -3.632964 2.270722 5.586213 -2.239042 -7.125000 0.000000 0.000000 91.035361 3.608044 13.846761 -21.276726 30.746039 -3.490009 -1.981171 -0.234477 -7.490460 7.125000 0.000000 0.000000 
-10.804182 15.726038 5.829246 -0.268970 1.974336 -8.917521 -41.911717 -6.841952 -10.838148 9.457727 7.895838 29.372029 -6.269146 -20.782881 -22.599496 0.144400 2.449300 6.749000 31.905044 -8.202993 8.983779 -12.148576 -17.489768 61.443561 -0.082110 5.332801 -22.075691 -0.107300 2.112600 -5.816900 5.095366 0.986842 32.315328 -0.356557 1.915117 -13.225199 1.300830 2.055129 44.593356 3.054700 -0.036100 14.912900 -97.358168 6.703998 16.843093 22.389246 -32.651245 -3.621232 2.224439 5.528734 -2.069170 -7.125000 0.000000 0.000000 90.957079 3.987708 14.156559 -21.361266 30.943499 -3.531749 -2.008002 -0.159727 -7.549008 7.125000 0.000000 0.000000 
-10.802661 15.752265 5.915984 -0.607375 1.745606 -9.008891 -41.686115 -6.046141 -9.920491 9.403377 7.754901 28.712302 -6.311482 -20.847364 -22.578277 0.166600 2.629900 7.249900 32.457651 -7.470872 7.791113 -12.504698 -17.643737 62.787082 -0.676220 3.579887 -23.534414 -0.140100 2.412300 -6.646600 5.606009 0.865716 32.499697 -0.415165 1.946156 -12.943859 0.882922 2.268235 44.375889 2.937400 -0.008700 14.887000 -97.258275 6.092109 16.778591 22.260594 -32.522883 -3.560890 2.091717 5.712280 -1.454583 -7.125000 0.000000 0.000000 91.022480 4.535038 14.110845 -21.467297 31.192887 -3.581942 -1.975095 -0.145047 -7.235828 7.125000 0.000000 0.000000 
-10.794425 15.775180 5.995113 -0.519102 1.790962 -9.031802 -41.884568 -5.420684 -8.988059 9.297637 7.607900 27.921501 -6.357719 -20.929134 -22.429062 0.160400 2.580800 7.113700 32.318412 -7.142634 6.664899 -12.818045 -17.770384 63.947856 -1.084083 2.263781 -24.440522 -0.067100 1.670800 -4.596800 5.435620 0.824923 32.358541 -0.321763 1.927797 -13.142003 0.361733 2.438157 44.598667 2.762500 -0.001300 14.922600 -97.046322 5.910402 16.668228 22.188960 -32.395323 -3.529305 2.126382 5.641036 -0.904149 -7.125000 0.000000 0.000000 91.069247 4.734095 14.194488 -21.645932 31.502703 -3.659340 -1.931721 -0.180015 -7.294018 7.125000 0.000000 0.000000 
-10.793441 15.795231 6.061710 -0.671719 1.807674 -9.214138 -41.803598 -4.643030 -8.095938 9.210485 7.485741 27.300071 -6.468091 -21.168974 -22.381088 0.165700 2.622500 7.229400 32.593439 -6.673120 5.743602 -13.090673 -17.874667 64.913234 -1.509304 0.820952 -25.504127 -0.041000 1.306600 -3.592900 5.717198 0.714107 31.969591 -0.406004 1.882954 -13.700398 0.306503 2.544684 45.259037 2.761600 0.044900 15.062900 -96.761844 6.117690 16.644561 22.375798 -32.575933 -3.588373 2.190453 5.485088 -0.712362 -7.125000 0.000000 0.000000 91.103663 4.648192 14.414727 -21.862479 31.815125 -3.735421 -1.907772 -0.090597 -7.509103 7.125000 0.000000 0.000000 
-10.790934 15.811344 6.130814 -0.801808 1.737000 -9.330668 -41.696548 -3.770951 -7.452100 9.152499 7.392957 26.788797 -6.579038 -21.298503 -22.063383 0.253200 3.237900 8.941800 32.888661 -6.034712 4.758335 -13.353017 -17.941059 65.767040 -1.863832 -0.390283 -26.719445 -0.032500 1.164100 -3.200300 5.857144 0.615820 32.034312 -0.446232 1.865627 -13.703758 0.591319 2.470332 45.420732 2.861300 0.047100 15.176200 -96.622996 5.836856 16.371939 22.598064 -32.934188 -3.669985 2.206668 5.555196 -0.332511 -7.125000 0.000000 0.000000 91.252910 5.036314 14.272695 -22.075517 32.198084 -3.816727 -1.851563 -0.000002 -7.003917 7.125000 0.000000 0.000000 
-10.781804 15.822443 6.198128 -0.910829 1.735422 -9.203306 -41.696959 -3.524486 -6.950389 9.069063 7.274427 26.272595 -6.655504 -21.611301 -22.382191 0.163400 2.604100 7.178500 33.139106 -5.454494 3.489046 -13.582635 -17.965540 66.470441 -2.078157 -1.189419 -27.472326 -0.005900 0.496400 -1.363900 5.754714 0.538813 32.155555 -0.445376 1.830780 -13.525039 -0.383498 2.939381 45.374481 2.560600 0.121800 15.213000 -96.482313 5.382519 16.121406 22.823752 -33.298966 -3.751895 2.229754 5.663197 -0.062722 -7.125000 0.000000 0.000000 91.410064 5.404441 14.227265 -22.390483 32.716938 -3.954855 -1.835462 0.019168 -6.970703 7.125000 0.000000 0.000000 
-10.789681 15.835691 6.245122 -1.616204 1.534993 -9.051794 -41.198849 -3.653102 -6.442029 9.074099 7.189515 25.922723 -6.498045 -21.358300 -22.854295 0.073100 1.743800 4.798100 34.430686 -4.329380 2.073479 -13.798235 -17.981189 67.076304 -2.311513 -2.254773 -28.094058 -0.001200 -0.227000 0.623700 6.900768 0.336873 31.842404 -0.812947 1.812494 -13.759306 -0.674683 3.153001 45.547559 2.510300 0.163800 15.215200 -96.296008 5.263017 16.086155 23.186025 -33.805041 -3.879993 2.219824 5.708445 -0.293010 -7.125000 0.000000 0.000000 91.368425 5.418778 14.504980 -22.741940 33.190190 -4.093981 -1.866670 0.107959 -7.643747 7.125000 0.000000 0.000000 
-10.787085 15.858248 6.329890 -1.362265 1.730143 -8.944251 -41.512984 -3.331131 -5.889523 8.978076 7.153301 25.569370 -6.473466 -21.321064 -22.751273 0.088000 1.913200 5.265800 34.280795 -3.827453 1.127208 -13.920917 -17.953831 67.361294 -2.429825 -2.532495 -29.068581 -0.008700 -0.601000 1.651500 6.869533 0.227314 31.809788 -0.545244 1.826154 -13.619906 -0.749319 3.223593 45.973911 2.524900 0.151500 15.401500 -96.253423 5.121591 15.894129 23.549648 -34.289389 -4.003714 2.168967 5.797006 -0.457934 -7.125000 0.000000 0.000000 91.328203 5.592811 14.569121 -22.937813 33.471971 -4.173369 -1.853466 0.139479 -8.218457 7.125000 0.000000 0.000000 
-10.785922 15.876509 6.392907 -0.940018 1.808481 -8.492845 -41.991900 -3.549019 -5.900046 8.925894 7.175117 25.440221 -6.298266 -20.952873 -22.719777 0.144400 2.449200 6.748800 34.190079 -2.814007 -0.237184 -14.053167 -17.895943 67.620165 -2.506614 -2.690802 -29.885811 -0.011200 -0.683400 1.878000 6.413353 0.298810 31.675325 -0.233758 1.885172 -13.647230 -0.445566 3.056086 46.358535 2.624000 0.109800 15.517700 -96.082205 4.973210 15.843063 23.922175 -34.777195 -4.139977 2.207227 5.818513 -0.685957 -7.125000 0.000000 0.000000 91.354510 5.730042 14.885415 -23.158396 33.810014 -4.290994 -1.854791 0.020629 -9.378900 7.125000 0.000000 0.000000 
